{"title":"Dont Look in the Cellar 2008 DVDRip Xvid BigPerm LKRG","uid":6323836,"size":848318596,"categoryP":"video","categoryS":"movies","magnet":"?xt=urn:btih:50bb6ae166f2fb97454763a77f171fef0a2b33f7&amp;dn=Dont+Look+in+the+Cellar+2008+DVDRip+Xvid+BigPerm+LKRG&amp;tr=udp%3A%2F%2Ftracker.openbittorrent.com%3A80&amp;tr=udp%3A%2F%2Fopen.demonii.com%3A1337&amp;tr=udp%3A%2F%2Ftracker.coppersurfer.tk%3A6969&amp;tr=udp%3A%2F%2Fexodus.desync.com%3A6969","seeders":0,"leechers":1,"uploader":"qwersd","files":-1,"time":1302998636,"description":"Plot\n\nA group of college students regret their decision to sneak into the cellar of a haunted asylum\non Halloween. One by one they encounter Smiley, the last of a flawed bloodline.\n\nRuntime ..........: 1h 27mn\nFile Size ........: 809 MiB\nResolution .......: 704x396\nIMDb URL .........: http://www.imdb.com/title/tt1535098/\nLanguage .........: English\nVideo\nID : 0\nFormat : MPEG-4 Visual\nFormat profile : Advanced Simple@L5\nFormat settings, BVOP : Yes\nFormat settings, QPel : No\nFormat settings, GMC : No warppoints\nFormat settings, Matrix : Default (H.263)\nCodec ID : XVID\nCodec ID/Hint : XviD\nDuration : 1h 27mn\nBit rate : 1 087 Kbps\nWidth : 704 pixels\nHeight : 396 pixels\nDisplay aspect ratio : 16:9\nFrame rate : 29.970 fps\nColor space : YUV\nChroma subsampling : 4:2:0\nBit depth : 8 bits\nScan type : Progressive\nCompression mode : Lossy\nBits/(Pixel*Frame) : 0.130\nStream size : 684 MiB (85%)\nWriting library : XviD 1.2.1 (UTC 2008-12-04)\n\nAudio\nID : 1\nFormat : AC-3\nFormat/Info : Audio Coding 3\nMode extension : CM (complete main)\nCodec ID : 2000\nDuration : 1h 27mn\nBit rate mode : Constant\nBit rate : 192 Kbps\nChannel(s) : 2 channels\nChannel positions : Front: L R\nSampling rate : 48.0 KHz\nBit depth : 16 bits\nCompression mode : Lossy\nVideo delay : 33ms\nStream size : 121 MiB (15%)\nAlignment : Split accross interleaves\nInterleave, duration : 500 ms (14.98 video frames)\nInterleave, preload duration : 500 ms\nLanguage : English\n\nScreens:\n &lt;a href=&quot;\nhttp://leetleech.org/images/94103296034226150216.png&quot; rel=&quot;nofollow&quot; target=&quot;_NEW&quot;&gt;\nhttp://leetleech.org/images/94103296034226150216.png&lt;/a&gt; &lt;a href=&quot;\nhttp://leetleech.org/images/68080209415016246025.png&quot; rel=&quot;nofollow&quot; target=&quot;_NEW&quot;&gt;\nhttp://leetleech.org/images/68080209415016246025.png&lt;/a&gt; &lt;a href=&quot;\nhttp://leetleech.org/images/04345132450421275016.png&quot; rel=&quot;nofollow&quot; target=&quot;_NEW&quot;&gt;\nhttp://leetleech.org/images/04345132450421275016.png&lt;/a&gt; &lt;a href=&quot;\nhttp://leetleech.org/images/85588277749653007007.png&quot; rel=&quot;nofollow&quot; target=&quot;_NEW&quot;&gt;\nhttp://leetleech.org/images/85588277749653007007.png&lt;/a&gt;","torrent":{"xt":"urn:btih:50bb6ae166f2fb97454763a77f171fef0a2b33f7","amp;dn":"Dont+Look+in+the+Cellar+2008+DVDRip+Xvid+BigPerm+LKRG","amp;tr":["udp%3A%2F%2Ftracker.openbittorrent.com%3A80","udp%3A%2F%2Fopen.demonii.com%3A1337","udp%3A%2F%2Ftracker.coppersurfer.tk%3A6969","udp%3A%2F%2Fexodus.desync.com%3A6969"],"infoHash":"50bb6ae166f2fb97454763a77f171fef0a2b33f7","infoHashBuffer":{"type":"Buffer","data":[80,187,106,225,102,242,251,151,69,71,99,167,127,23,31,239,10,43,51,247]},"announce":[],"urlList":[]}}